<?xml version="1.0" standalone="no"?><!DOCTYPE svg PUBLIC "-//W3C//DTD SVG 1.1//EN" "http://www.w3.org/Graphics/SVG/1.1/DTD/svg11.dtd"><svg t="1652624965673" class="icon" viewBox="0 0 1024 1024" version="1.1" xmlns="http://www.w3.org/2000/svg" p-id="2398" xmlns:xlink="http://www.w3.org/1999/xlink" width="200" height="200"><defs><style type="text/css">@font-face { font-family: feedback-iconfont; src: url("//at.alicdn.com/t/font_1031158_u69w8yhxdu.woff2?t=1630033759944") format("woff2"), url("//at.alicdn.com/t/font_1031158_u69w8yhxdu.woff?t=1630033759944") format("woff"), url("//at.alicdn.com/t/font_1031158_u69w8yhxdu.ttf?t=1630033759944") format("truetype"); }
</style></defs><path d="M960.616994 0.010005H519.790222c-9.825277 0-20.481001 4.642494-27.854961 12.016455L10.676772 494.095383l-1.090586 0.550296c-15.018066 15.018066-15.018066 39.331125 0 54.079046l439.736187 439.736187 0.550295 0.82044c14.747921 15.018066 39.331125 15.018066 54.349192 0l482.609214-482.619219c7.654111-7.644106 12.016454-17.209243 12.016454-27.854961V38.52069c0-21.311447-16.929093-38.510684-38.230534-38.510685z m-38.78083 462.948654L477.177334 907.61749l-386.207436-385.65714L536.179024 76.761229h385.65714v386.19743zM756.867558 357.532034c63.093888 0 114.981758-51.897875 114.981758-115.261908 0-63.364033-51.897875-115.261908-114.981758-115.261909-63.364033 0-115.271914 51.347579-115.271913 115.261909 0 63.374039 51.90788 115.261908 115.271913 115.261908z m0-184.088876a68.716908 68.716908 0 0 1 68.826968 68.826968c0 37.960389-31.136724 69.377263-68.826968 69.377263-38.240539 0-69.377263-31.416874-69.377263-69.377263 0-38.230534 31.136724-68.826968 69.377263-68.826968z" p-id="2399"></path></svg>