<?xml version="1.0" standalone="no"?><!DOCTYPE svg PUBLIC "-//W3C//DTD SVG 1.1//EN" "http://www.w3.org/Graphics/SVG/1.1/DTD/svg11.dtd"><svg t="1652622916514" class="icon" viewBox="0 0 1024 1024" version="1.1" xmlns="http://www.w3.org/2000/svg" p-id="1939" xmlns:xlink="http://www.w3.org/1999/xlink" width="200" height="200"><defs><style type="text/css">@font-face { font-family: feedback-iconfont; src: url("//at.alicdn.com/t/font_1031158_u69w8yhxdu.woff2?t=1630033759944") format("woff2"), url("//at.alicdn.com/t/font_1031158_u69w8yhxdu.woff?t=1630033759944") format("woff"), url("//at.alicdn.com/t/font_1031158_u69w8yhxdu.ttf?t=1630033759944") format("truetype"); }
</style></defs><path d="M643.603 574.542H282.534c-6.575 0-11.875 8.923-11.875 19.875 0 10.96 5.3 19.813 11.875 19.813h361.069c6.56 0 11.864-8.852 11.864-19.813 0-10.962-5.305-19.875-11.864-19.875z m0 0M643.603 482.917H282.534c-6.575 0-11.875 8.887-11.875 19.882 0 10.957 5.3 19.814 11.875 19.814h361.069c6.56 0 11.864-8.858 11.864-19.814 0-10.995-5.305-19.882-11.864-19.882z m0 0M643.603 391.354H282.534c-6.575 0-11.875 8.862-11.875 19.823 0 10.956 5.3 19.849 11.875 19.849h361.069c6.56 0 11.864-8.893 11.864-19.85 0-10.96-5.305-19.822-11.864-19.822z m0 0" p-id="1940"></path><path d="M900.158 178c0-62.308-50.614-113.017-112.829-113.017H234.202c-0.258 0-0.483 0.039-0.764 0.055-0.263-0.016-0.508-0.055-0.771-0.055-60.57 0-109.856 50.709-109.856 113.017v660.709c0 8.328 3.264 16.26 9.085 22.003l89.752 89.056c11.51 11.398 29.718 11.398 41.226 0l91.565-90.85 94.998 94.243c11.512 11.448 29.736 11.448 41.247 0l95.004-94.244 95.012 94.244c5.754 5.71 13.191 8.58 20.598 8.58 7.429 0 14.879-2.87 20.633-8.58l86-85.308c5.806-5.778 9.083-13.706 9.083-21.998V286.96c47.845-13.138 83.144-56.963 83.144-108.961z m-193.3 719.933l-97.303-96.539c-11.766-11.706-30.41-11.706-42.2 0l-97.28 96.539-97.293-96.539c-11.788-11.706-30.431-11.706-42.223 0l-93.765 93.01-61.506-61V170.087c0-29.331 23.184-53.18 51.68-53.18 0.256 0 0.484-0.076 0.718-0.076 0.304 0 0.576 0.077 0.857 0.077h0.106c30.13 0.067 54.616 23.904 54.616 53.179 0 29.323-24.541 53.193-54.722 53.193-16.804 0-30.394 13.98-30.394 31.254 0 17.295 13.59 31.314 30.394 31.314h536v554.829l-57.686 57.255z m67.984-661.969l-473.477-3.028c28.834-14.134 28.854-42.54 28.834-51.081-0.073-31.884-4.91-45.984-13.04-61.698l474.026-0.798c29.74 0 60.765 31.187 60.765 60.085 0 28.89-31.4 55.044-61.138 55.044l-15.97 1.476z m0 0" p-id="1941"></path></svg>