<?xml version="1.0" standalone="no"?><!DOCTYPE svg PUBLIC "-//W3C//DTD SVG 1.1//EN" "http://www.w3.org/Graphics/SVG/1.1/DTD/svg11.dtd"><svg t="1652792772968" class="icon" viewBox="0 0 1024 1024" version="1.1" xmlns="http://www.w3.org/2000/svg" p-id="1940" xmlns:xlink="http://www.w3.org/1999/xlink" width="200" height="200"><defs><style type="text/css">@font-face { font-family: feedback-iconfont; src: url("//at.alicdn.com/t/font_1031158_u69w8yhxdu.woff2?t=1630033759944") format("woff2"), url("//at.alicdn.com/t/font_1031158_u69w8yhxdu.woff?t=1630033759944") format("woff"), url("//at.alicdn.com/t/font_1031158_u69w8yhxdu.ttf?t=1630033759944") format("truetype"); }
</style></defs><path d="M64 480h352V128H64v352z m64-288h224v224H128V192zM64 928h352V576H64v352z m64-288h224v224H128v-224zM526.848 224H928a32 32 0 1 0 0-64H526.848a32 32 0 0 0 0 64zM928 608H526.848a32 32 0 1 0 0 64H928a32 32 0 1 0 0-64zM928 384H526.848a32 32 0 0 0 0 64H928a32 32 0 1 0 0-64zM928 832H526.848a32 32 0 1 0 0 64H928a32 32 0 1 0 0-64z" p-id="1941"></path></svg>